<svg xmlns="http://www.w3.org/2000/svg" width="24" height="24" viewBox="0 0 24 24" fill="none" stroke="oklch(0.6171 0.1375 39.0427)" stroke-width="2" stroke-linecap="round" stroke-linejoin="round"><path d="M13 10V4a1 1 0 0 0-1-1H6a1 1 0 0 0-1 1v6"/><path d="M21 10V4a1 1 0 0 0-1-1h-6a1 1 0 0 0-1 1v6"/><path d="M21 18v2a1 1 0 0 1-1 1h-6a1 1 0 0 1-1-1v-6"/><path d="M5 18v2a1 1 0 0 1-1 1H4a1 1 0 0 1-1-1v-6"/><path d="M5 10v4a1 1 0 0 0 1 1h2"/><path d="M3 18h8"/><path d="m2 22 4-4"/><path d="M13 18h8"/><path d="M13 10v4a1 1 0 0 0 1 1h2"/><path d="m18 22 4-4"/></svg>
